<?xml version="1.0" encoding="UTF-8" standalone="no"?>
<!DOCTYPE svg PUBLIC "-//W3C//DTD SVG 1.1//EN" "http://www.w3.org/Graphics/SVG/1.1/DTD/svg11.dtd">
<svg version="1.1" xmlns="http://www.w3.org/2000/svg" xmlns:xlink="http://www.w3.org/1999/xlink" preserveAspectRatio="xMidYMid meet" viewBox="0 0 640 640" width="640" height="640"><defs><path d="M467.55 357.04C469.67 357.04 471.4 358.76 471.4 360.89C471.4 361.66 471.4 360.12 471.4 360.89C471.4 363.01 469.67 364.74 467.55 364.74C411.86 364.74 248.66 364.74 192.98 364.74C190.86 364.74 189.13 363.01 189.13 360.89C189.13 360.12 189.13 361.66 189.13 360.89C189.13 358.76 190.86 357.04 192.98 357.04C248.66 357.04 411.86 357.04 467.55 357.04Z" id="aK9jJlwZu"></path><path d="M461.61 224.09C467.02 224.09 471.4 228.47 471.4 233.88C471.4 254.98 471.4 308.52 471.4 329.62C471.4 335.02 467.02 339.4 461.61 339.4C407.12 339.4 253.41 339.4 198.91 339.4C193.51 339.4 189.13 335.02 189.13 329.62C189.13 308.52 189.13 254.98 189.13 233.88C189.13 228.47 193.51 224.09 198.91 224.09C253.41 224.09 407.12 224.09 461.61 224.09Z" id="m1W8dqDErx"></path><path d="M501.57 248.3C504.74 248.3 507.32 250.88 507.32 254.06C507.32 264.88 507.32 291.6 507.32 302.42C507.32 305.6 504.74 308.18 501.57 308.18C495.53 308.18 483.18 308.18 477.15 308.18C473.97 308.18 471.4 305.6 471.4 302.42C471.4 291.6 471.4 264.88 471.4 254.06C471.4 250.88 473.97 248.3 477.15 248.3C483.18 248.3 495.53 248.3 501.57 248.3Z" id="b3qVGTLi9"></path><path d="M226.39 146.92C226.39 146.47 226.76 146.1 227.21 146.1C228.41 146.1 231.21 146.1 232.42 146.1C232.87 146.1 233.23 146.47 233.23 146.92C233.23 158.73 233.23 193.35 233.23 205.16C233.23 205.61 232.87 205.97 232.42 205.97C231.21 205.97 228.41 205.97 227.21 205.97C226.76 205.97 226.39 205.61 226.39 205.16C226.39 193.35 226.39 158.73 226.39 146.92Z" id="aftmHQd3D"></path><path d="M427.79 146.92C427.79 146.47 428.16 146.1 428.61 146.1C429.81 146.1 432.61 146.1 433.82 146.1C434.27 146.1 434.64 146.47 434.64 146.92C434.64 158.73 434.64 193.35 434.64 205.16C434.64 205.61 434.27 205.97 433.82 205.97C432.61 205.97 429.81 205.97 428.61 205.97C428.16 205.97 427.79 205.61 427.79 205.16C427.79 193.35 427.79 158.73 427.79 146.92Z" id="b4N3aLzRXb"></path><path d="M327.42 105.58C327.42 104.81 328.04 104.19 328.81 104.19C329.9 104.19 331.79 104.19 332.88 104.19C333.64 104.19 334.26 104.81 334.26 105.58C334.26 125.66 334.26 184.51 334.26 204.59C334.26 205.35 333.64 205.97 332.88 205.97C331.79 205.97 329.9 205.97 328.81 205.97C328.04 205.97 327.42 205.35 327.42 204.59C327.42 184.51 327.42 125.66 327.42 105.58Z" id="eozBieJgG"></path></defs><g><g><g><use xlink:href="#aK9jJlwZu" opacity="1" fill="#000000" fill-opacity="1"></use></g><g><g><use xlink:href="#m1W8dqDErx" opacity="1" fill-opacity="0" stroke="#000000" stroke-width="8" stroke-opacity="1"></use></g></g><g><g><use xlink:href="#b3qVGTLi9" opacity="1" fill-opacity="0" stroke="#000000" stroke-width="8" stroke-opacity="1"></use></g></g><g><use xlink:href="#aftmHQd3D" opacity="1" fill="#000000" fill-opacity="1"></use></g><g><use xlink:href="#b4N3aLzRXb" opacity="1" fill="#000000" fill-opacity="1"></use></g><g><use xlink:href="#eozBieJgG" opacity="1" fill="#000000" fill-opacity="1"></use></g></g></g></svg>